<?xml version="1.0" encoding="UTF-8"?>
<svg id="Capa_1" xmlns="http://www.w3.org/2000/svg" version="1.1" viewBox="0 0 120.73 44.68">
  <!-- Generator: Adobe Illustrator 30.3.0, SVG Export Plug-In . SVG Version: 2.1.3 Build 182)  -->
  <defs>
    <style>
      .st0 {
        fill: #008578;
      }
    </style>
  </defs>
  <path class="st0" d="M5.43,2.62c-.47,0-.89.09-1.25.28-.36.18-.66.44-.91.78-.24.34-.43.76-.55,1.24-.13.49-.19,1.03-.19,1.64,0,.82.1,1.52.3,2.1.21.57.52,1.02.95,1.32.43.3.98.45,1.65.45.47,0,.94-.05,1.41-.16.47-.11.99-.26,1.54-.45v2.06c-.51.21-1.02.36-1.51.45-.5.09-1.05.14-1.67.14-1.19,0-2.17-.25-2.94-.74-.76-.5-1.33-1.19-1.7-2.07-.37-.89-.55-1.93-.55-3.12,0-.88.12-1.68.36-2.4.24-.73.59-1.36,1.04-1.89.46-.53,1.03-.94,1.7-1.23s1.45-.44,2.33-.44c.57,0,1.15.07,1.72.22.58.14,1.13.34,1.66.59l-.79,1.99c-.43-.21-.87-.38-1.31-.54-.44-.15-.87-.23-1.29-.23ZM14.44,3.28c1.19,0,2.1.26,2.73.78.63.52.95,1.3.95,2.36v5.89h-1.68l-.47-1.2h-.06c-.25.32-.51.57-.78.78-.26.2-.57.35-.91.44-.34.09-.76.14-1.25.14-.52,0-.99-.1-1.41-.3-.41-.2-.74-.51-.97-.92-.24-.42-.36-.94-.36-1.58,0-.94.33-1.63.99-2.07.66-.45,1.65-.7,2.97-.74l1.53-.05v-.39c0-.46-.12-.8-.36-1.02-.24-.22-.58-.32-1.01-.32s-.85.06-1.26.18c-.41.12-.82.27-1.23.46l-.8-1.63c.47-.25.99-.44,1.57-.59.59-.14,1.19-.21,1.81-.21ZM15.72,8.21l-.93.03c-.78.02-1.32.16-1.63.42-.3.26-.45.6-.45,1.02,0,.37.11.63.32.79.22.15.5.23.85.23.52,0,.95-.15,1.31-.46.36-.31.54-.74.54-1.31v-.73ZM23.18,12.31h-2.41V0h2.41v12.31ZM29.48,12.47c-.88,0-1.62-.16-2.24-.47-.62-.32-1.09-.82-1.41-1.49-.32-.67-.48-1.53-.48-2.57s.18-1.96.55-2.64c.37-.69.88-1.19,1.53-1.51.65-.32,1.41-.48,2.27-.48.61,0,1.14.06,1.58.18.45.12.84.26,1.17.42l-.71,1.87c-.38-.15-.73-.28-1.06-.37-.33-.1-.65-.15-.98-.15-.42,0-.77.1-1.05.3-.28.2-.49.49-.62.89-.14.4-.21.89-.21,1.49s.07,1.07.22,1.46c.15.39.36.67.64.86.28.18.62.28,1.02.28.5,0,.95-.07,1.34-.2.39-.14.77-.33,1.14-.57v2.06c-.37.23-.76.4-1.16.5-.4.11-.91.16-1.53.16ZM42.5,3.46v8.84h-1.85l-.32-1.13h-.13c-.19.3-.43.55-.71.74-.28.19-.6.33-.94.42-.34.09-.7.13-1.07.13-.63,0-1.18-.11-1.65-.33-.47-.23-.84-.58-1.1-1.05-.26-.47-.39-1.09-.39-1.85V3.46h2.41v5.17c0,.63.11,1.11.34,1.43s.59.48,1.08.48.88-.11,1.15-.33c.28-.23.47-.56.59-.99.12-.44.17-.97.17-1.6V3.46h2.41ZM47.61,12.31h-2.41V0h2.41v12.31ZM53.93,3.28c1.19,0,2.1.26,2.73.78.63.52.95,1.3.95,2.36v5.89h-1.69l-.47-1.2h-.06c-.25.32-.51.57-.78.78-.26.2-.57.35-.91.44-.34.09-.76.14-1.25.14-.52,0-.99-.1-1.41-.3-.41-.2-.74-.51-.97-.92-.24-.42-.36-.94-.36-1.58,0-.94.33-1.63.99-2.07.66-.45,1.65-.7,2.97-.74l1.53-.05v-.39c0-.46-.12-.8-.36-1.02-.24-.22-.58-.32-1.01-.32s-.85.06-1.26.18c-.41.12-.82.27-1.23.46l-.8-1.63c.47-.25.99-.44,1.57-.59.59-.14,1.19-.21,1.81-.21ZM55.21,8.21l-.93.03c-.78.02-1.32.16-1.63.42-.3.26-.45.6-.45,1.02,0,.37.11.63.32.79.22.15.5.23.85.23.52,0,.95-.15,1.3-.46.36-.31.54-.74.54-1.31v-.73ZM63.06,12.47c-.99,0-1.79-.39-2.41-1.15-.62-.78-.93-1.91-.93-3.41s.31-2.66.94-3.43c.63-.78,1.45-1.17,2.46-1.17.42,0,.79.06,1.12.17.32.12.6.27.83.47.24.2.44.41.6.66h.08c-.03-.17-.07-.42-.12-.74-.04-.33-.06-.67-.06-1.02V0h2.42v12.31h-1.85l-.47-1.15h-.1c-.15.24-.35.46-.58.66-.23.2-.5.35-.81.47-.32.12-.69.17-1.12.17ZM63.91,10.54c.66,0,1.12-.2,1.39-.59.27-.4.42-.99.44-1.78v-.26c0-.86-.13-1.52-.4-1.97-.26-.46-.75-.69-1.47-.69-.53,0-.95.23-1.25.69-.3.46-.45,1.12-.45,1.99s.15,1.52.45,1.95c.31.44.74.66,1.29.66ZM78.71,7.87c0,.74-.1,1.39-.3,1.96-.19.57-.48,1.05-.86,1.45-.37.39-.83.69-1.36.89-.53.2-1.12.3-1.79.3-.62,0-1.19-.1-1.72-.3-.52-.2-.97-.5-1.35-.89-.38-.4-.68-.88-.89-1.45-.21-.57-.31-1.22-.31-1.96,0-.98.17-1.81.52-2.49.35-.68.84-1.2,1.49-1.55.64-.35,1.41-.53,2.3-.53.83,0,1.56.18,2.2.53.64.35,1.15.87,1.51,1.55.37.68.55,1.51.55,2.49ZM72.6,7.87c0,.58.06,1.07.19,1.46.13.4.33.69.59.89.27.2.62.3,1.05.3s.77-.1,1.04-.3c.27-.2.46-.5.58-.89.13-.4.19-.88.19-1.46s-.06-1.07-.19-1.46c-.12-.39-.32-.68-.58-.88-.27-.2-.62-.29-1.05-.29-.64,0-1.1.22-1.39.66-.29.44-.43,1.09-.43,1.97ZM85.8,3.3c.12,0,.26,0,.42.02.16.01.3.03.4.05l-.18,2.26c-.08-.03-.19-.04-.34-.06-.14-.02-.27-.02-.37-.02-.31,0-.61.04-.91.12-.29.08-.55.21-.78.39-.23.17-.42.41-.55.7-.13.28-.2.64-.2,1.05v4.5h-2.41V3.46h1.83l.36,1.49h.12c.17-.3.39-.57.65-.82.26-.25.56-.45.89-.6.34-.15.7-.23,1.09-.23ZM92.01,3.28c1.19,0,2.1.26,2.73.78.63.52.95,1.3.95,2.36v5.89h-1.68l-.47-1.2h-.06c-.25.32-.51.57-.77.78-.26.2-.57.35-.91.44-.34.09-.76.14-1.25.14-.52,0-.99-.1-1.41-.3-.41-.2-.74-.51-.97-.92-.24-.42-.36-.94-.36-1.58,0-.94.33-1.63.99-2.07.66-.45,1.65-.7,2.97-.74l1.53-.05v-.39c0-.46-.12-.8-.36-1.02-.24-.22-.58-.32-1.01-.32s-.85.06-1.26.18c-.41.12-.82.27-1.23.46l-.8-1.63c.47-.25.99-.44,1.57-.59.59-.14,1.19-.21,1.81-.21ZM93.29,8.21l-.93.03c-.78.02-1.32.16-1.63.42-.3.26-.45.6-.45,1.02,0,.37.11.63.32.79.22.15.5.23.85.23.52,0,.95-.15,1.3-.46.36-.31.54-.74.54-1.31v-.73ZM105.51,12.47c-.99,0-1.79-.39-2.41-1.15-.62-.78-.92-1.91-.92-3.41s.31-2.66.94-3.43c.63-.78,1.45-1.17,2.46-1.17.42,0,.79.06,1.12.17.32.12.6.27.83.47.24.2.44.41.6.66h.08c-.03-.17-.07-.42-.12-.74-.04-.33-.06-.67-.06-1.02V0h2.42v12.31h-1.85l-.47-1.15h-.1c-.15.24-.35.46-.58.66-.23.2-.5.35-.82.47-.32.12-.69.17-1.11.17ZM106.36,10.54c.66,0,1.12-.2,1.39-.59.27-.4.42-.99.43-1.78v-.26c0-.86-.13-1.52-.4-1.97-.26-.46-.75-.69-1.47-.69-.53,0-.95.23-1.25.69-.3.46-.45,1.12-.45,1.99s.15,1.52.45,1.95c.31.44.74.66,1.29.66ZM116.77,3.3c.82,0,1.52.16,2.11.47.59.31,1.05.76,1.37,1.36.32.6.48,1.32.48,2.18v1.17h-5.7c.03.68.23,1.22.61,1.61.38.38.92.58,1.6.58.56,0,1.08-.06,1.55-.17.47-.12.95-.29,1.45-.52v1.87c-.44.22-.9.37-1.38.47-.47.1-1.05.15-1.73.15-.89,0-1.67-.16-2.36-.49-.68-.33-1.22-.83-1.61-1.49-.39-.67-.58-1.51-.58-2.53s.18-1.89.52-2.58c.35-.69.84-1.21,1.47-1.55.63-.35,1.36-.52,2.19-.52ZM116.79,5.02c-.47,0-.86.15-1.17.45-.31.3-.48.77-.53,1.42h3.39c0-.36-.07-.68-.2-.96-.12-.28-.31-.5-.55-.66-.24-.16-.55-.25-.93-.25ZM10.94,17.04c2.47,0,4.53.3,6.17.91,1.64.6,2.87,1.49,3.69,2.69.83,1.19,1.25,2.68,1.25,4.46,0,1.11-.19,2.11-.56,3.02-.37.91-.91,1.72-1.6,2.44-.68.71-1.5,1.33-2.46,1.87l7.95,11.88h-8.36l-5.78-9.92h-1.87v9.92H2.01v-27.27h8.93ZM10.83,22.62h-1.45v6.23h1.38c1.13,0,2.06-.25,2.78-.75.72-.5,1.08-1.39,1.08-2.67,0-.88-.3-1.57-.9-2.07-.6-.5-1.56-.75-2.89-.75ZM37.32,22.8c2.05,0,3.82.36,5.32,1.08,1.49.71,2.64,1.78,3.45,3.21.81,1.43,1.21,3.22,1.21,5.37v3.25h-13.04c.06,1.11.47,2.01,1.23,2.72.77.71,1.9,1.06,3.39,1.06,1.32,0,2.52-.13,3.62-.39,1.11-.26,2.24-.67,3.41-1.21v5.24c-1.02.53-2.13.93-3.34,1.18s-2.73.37-4.57.37c-2.13,0-4.03-.38-5.71-1.14-1.68-.76-3-1.93-3.97-3.53-.96-1.59-1.44-3.64-1.44-6.14s.44-4.62,1.31-6.25c.87-1.64,2.09-2.85,3.66-3.64,1.57-.8,3.39-1.19,5.47-1.19ZM37.58,27.76c-.86,0-1.58.27-2.16.82-.57.53-.91,1.38-1.01,2.54h6.27c-.01-.62-.14-1.19-.37-1.7-.24-.51-.58-.91-1.04-1.21-.45-.3-1.01-.45-1.68-.45ZM72.36,23.18v21.13h-5.5l-.91-2.63h-.43c-.44.71-.99,1.29-1.66,1.73-.66.44-1.39.75-2.2.95-.81.21-1.65.32-2.52.32-1.38,0-2.63-.27-3.75-.8-1.11-.53-1.99-1.37-2.65-2.52-.65-1.14-.97-2.62-.97-4.42v-13.77h7.29v11.55c0,1.37.19,2.41.58,3.13.4.71,1.04,1.06,1.94,1.06s1.63-.25,2.13-.75c.51-.5.86-1.23,1.06-2.2.2-.97.3-2.15.3-3.54v-9.25h7.29ZM71.17,15.04v.39c-.45.36-1.02.8-1.72,1.32-.7.51-1.44,1.04-2.22,1.6-.77.55-1.52,1.07-2.26,1.57-.72.5-1.34.91-1.87,1.23h-4.85v-.54c.43-.47.96-1.03,1.57-1.68.61-.66,1.22-1.33,1.83-2.01.61-.68,1.12-1.31,1.53-1.88h7.98ZM93.48,37.82c0,1.34-.3,2.53-.89,3.56-.6,1.03-1.55,1.84-2.87,2.42-1.31.58-3.03.88-5.17.88-1.51,0-2.85-.08-4.05-.24-1.18-.16-2.38-.47-3.6-.93v-5.84c1.33.61,2.69,1.05,4.07,1.32,1.38.26,2.47.39,3.26.39s1.42-.09,1.79-.26c.39-.19.58-.46.58-.82,0-.31-.13-.57-.39-.78-.25-.22-.7-.48-1.36-.76-.65-.29-1.56-.67-2.74-1.16-1.17-.48-2.15-1.01-2.93-1.59-.77-.57-1.35-1.26-1.74-2.05-.39-.8-.58-1.77-.58-2.93,0-2.06.8-3.62,2.39-4.66,1.59-1.04,3.7-1.57,6.32-1.57,1.39,0,2.7.16,3.93.47,1.23.3,2.51.74,3.82,1.32l-2,4.7c-1.04-.47-2.1-.85-3.17-1.14-1.07-.29-1.92-.43-2.56-.43-.57,0-1.01.07-1.32.22-.31.15-.47.37-.47.65,0,.26.11.49.32.69.22.2.64.43,1.25.69.61.26,1.5.63,2.67,1.1,1.23.5,2.24,1.03,3.04,1.6.81.56,1.4,1.24,1.79,2.05.4.81.6,1.83.6,3.08ZM118.11,33.69c0,1.77-.24,3.33-.73,4.7s-1.19,2.52-2.11,3.45c-.92.93-2.03,1.64-3.34,2.13-1.31.47-2.78.71-4.42.71-1.53,0-2.94-.24-4.22-.71-1.27-.49-2.38-1.19-3.32-2.13-.94-.93-1.68-2.08-2.2-3.45-.51-1.37-.76-2.93-.76-4.7,0-2.34.42-4.31,1.27-5.93.86-1.62,2.08-2.85,3.66-3.69,1.59-.85,3.49-1.27,5.69-1.27,2.03,0,3.83.42,5.41,1.27s2.82,2.08,3.71,3.69c.91,1.62,1.36,3.59,1.36,5.93ZM104.42,33.69c0,1.21.1,2.23.32,3.06.21.82.55,1.45,1.01,1.88.47.42,1.09.63,1.85.63s1.36-.21,1.81-.63c.45-.44.77-1.06.97-1.88.21-.83.32-1.85.32-3.06s-.11-2.21-.32-3.02c-.2-.81-.53-1.42-.99-1.83-.45-.41-1.06-.62-1.83-.62-1.11,0-1.91.46-2.41,1.38-.49.92-.73,2.28-.73,4.08Z"/>
</svg>