<svg width="168" height="47" viewBox="0 0 168 47" fill="none" xmlns="http://www.w3.org/2000/svg">
<path d="M11.0033 35.4953C34.9193 35.4953 36.8459 15.1485 37 5.47927C37.0014 5.21625 36.95 4.95561 36.8489 4.71279C36.7478 4.46997 36.599 4.2499 36.4114 4.0656C36.2237 3.8813 36.001 3.73651 35.7564 3.63981C35.5118 3.54311 35.2503 3.49646 34.9873 3.50261C1.00001 4.12682 1.00001 20.6043 1.00001 35.4953V43.4979" stroke="#00827C" stroke-width="2" stroke-linecap="round" stroke-linejoin="round"/>
<path d="M1.00001 35.4953C1.00001 35.4953 1.00001 23.4913 17.0053 21.4906" stroke="#00827C" stroke-width="2" stroke-linecap="round" stroke-linejoin="round"/>
<path d="M51.3677 4.31006C50.8983 4.31006 50.4817 4.40234 50.1179 4.58691C49.7593 4.76621 49.4561 5.02725 49.2082 5.37002C48.9656 5.71279 48.7811 6.12676 48.6545 6.61191C48.5279 7.09707 48.4647 7.64287 48.4647 8.24932C48.4647 9.0667 48.5649 9.76543 48.7652 10.3455C48.9709 10.9203 49.2873 11.3606 49.7145 11.6665C50.1416 11.9671 50.6927 12.1174 51.3677 12.1174C51.837 12.1174 52.3064 12.0646 52.7757 11.9592C53.2503 11.8537 53.7645 11.7034 54.3182 11.5083V13.5649C53.8066 13.7759 53.303 13.9262 52.8073 14.0158C52.3116 14.1107 51.7553 14.1582 51.1383 14.1582C49.9465 14.1582 48.9656 13.913 48.1957 13.4226C47.4311 12.9269 46.8642 12.236 46.495 11.3501C46.1259 10.4589 45.9413 9.42002 45.9413 8.2335C45.9413 7.35811 46.06 6.55654 46.2973 5.82881C46.5346 5.10107 46.8826 4.4709 47.3414 3.93828C47.8002 3.40566 48.3671 2.99434 49.0421 2.7043C49.7171 2.41426 50.4923 2.26924 51.3677 2.26924C51.9425 2.26924 52.5173 2.34307 53.0921 2.49072C53.6722 2.6331 54.2259 2.83086 54.7532 3.08398L53.9622 5.07734C53.5298 4.87168 53.0947 4.69238 52.657 4.53945C52.2193 4.38652 51.7896 4.31006 51.3677 4.31006ZM60.3811 4.97451C61.5677 4.97451 62.4773 5.23291 63.1102 5.74971C63.743 6.2665 64.0594 7.05225 64.0594 8.10693V14H62.3745L61.9078 12.7977H61.8445C61.5914 13.1141 61.333 13.3725 61.0693 13.5729C60.8057 13.7732 60.5024 13.9209 60.1597 14.0158C59.8169 14.1107 59.4003 14.1582 58.9099 14.1582C58.3878 14.1582 57.9185 14.058 57.5019 13.8576C57.0905 13.6572 56.7662 13.3514 56.5289 12.94C56.2916 12.5234 56.1729 11.9961 56.1729 11.358C56.1729 10.4193 56.5025 9.72852 57.1617 9.28555C57.8209 8.8373 58.8097 8.58945 60.128 8.54199L61.6626 8.49453V8.10693C61.6626 7.64287 61.5413 7.30273 61.2987 7.08652C61.0561 6.87031 60.7186 6.76221 60.2862 6.76221C59.8591 6.76221 59.4398 6.82285 59.0285 6.94414C58.6172 7.06543 58.2059 7.21836 57.7945 7.40293L56.9956 5.77344C57.4649 5.52559 57.9896 5.33047 58.5697 5.18809C59.1551 5.0457 59.7589 4.97451 60.3811 4.97451ZM61.6626 9.90254L60.7292 9.93418C59.9487 9.95527 59.4056 10.095 59.0997 10.3534C58.7991 10.6118 58.6488 10.952 58.6488 11.3738C58.6488 11.743 58.7569 12.0066 58.9731 12.1648C59.1894 12.3178 59.4715 12.3942 59.8195 12.3942C60.3363 12.3942 60.7714 12.2413 61.1247 11.9354C61.4833 11.6296 61.6626 11.1945 61.6626 10.6303V9.90254ZM69.1257 14H66.7131V1.6918H69.1257V14ZM75.418 14.1582C74.5427 14.1582 73.7965 14 73.1795 13.6836C72.5625 13.3619 72.0931 12.8662 71.7715 12.1965C71.4498 11.5268 71.2889 10.6698 71.2889 9.62568C71.2889 8.54463 71.4709 7.66396 71.8347 6.98369C72.2039 6.29814 72.7128 5.79453 73.3614 5.47285C74.0153 5.15117 74.772 4.99033 75.6316 4.99033C76.2433 4.99033 76.7707 5.05098 77.2136 5.17227C77.6619 5.28828 78.0521 5.42803 78.3843 5.5915L77.6724 7.4583C77.2927 7.30537 76.9394 7.18144 76.6125 7.08652C76.2855 6.98633 75.9586 6.93623 75.6316 6.93623C75.2097 6.93623 74.8591 7.03643 74.5796 7.23682C74.3001 7.43193 74.0918 7.72725 73.9547 8.12275C73.8176 8.51826 73.749 9.01396 73.749 9.60986C73.749 10.1952 73.8228 10.6804 73.9705 11.0653C74.1181 11.4503 74.3317 11.7377 74.6112 11.9275C74.8907 12.1121 75.2308 12.2044 75.6316 12.2044C76.1326 12.2044 76.5782 12.1385 76.9684 12.0066C77.3587 11.8695 77.7384 11.6797 78.1075 11.4371V13.5017C77.7384 13.7337 77.3508 13.8998 76.9447 14C76.5439 14.1055 76.035 14.1582 75.418 14.1582ZM88.442 5.15644V14H86.591L86.2667 12.8688H86.1401C85.9503 13.1694 85.713 13.4146 85.4282 13.6045C85.1434 13.7943 84.8296 13.9341 84.4869 14.0237C84.1441 14.1134 83.7881 14.1582 83.419 14.1582C82.7862 14.1582 82.2351 14.0475 81.7658 13.826C81.2964 13.5992 80.9299 13.2485 80.6663 12.7739C80.4079 12.2993 80.2787 11.6823 80.2787 10.9229V5.15644H82.6913V10.3218C82.6913 10.9546 82.8046 11.4318 83.0314 11.7535C83.2582 12.0752 83.6194 12.236 84.1151 12.236C84.6055 12.236 84.9905 12.1253 85.27 11.9038C85.5495 11.6771 85.7446 11.3475 85.8553 10.915C85.9713 10.4773 86.0294 9.94473 86.0294 9.31719V5.15644H88.442ZM93.5478 14H91.1352V1.6918H93.5478V14ZM99.8718 4.97451C101.058 4.97451 101.968 5.23291 102.601 5.74971C103.234 6.2665 103.55 7.05225 103.55 8.10693V14H101.865L101.398 12.7977H101.335C101.082 13.1141 100.824 13.3725 100.56 13.5729C100.296 13.7732 99.9931 13.9209 99.6503 14.0158C99.3076 14.1107 98.891 14.1582 98.4005 14.1582C97.8785 14.1582 97.4091 14.058 96.9925 13.8576C96.5812 13.6572 96.2569 13.3514 96.0196 12.94C95.7823 12.5234 95.6636 11.9961 95.6636 11.358C95.6636 10.4193 95.9932 9.72852 96.6524 9.28555C97.3116 8.8373 98.3003 8.58945 99.6187 8.54199L101.153 8.49453V8.10693C101.153 7.64287 101.032 7.30273 100.789 7.08652C100.547 6.87031 100.209 6.76221 99.7769 6.76221C99.3497 6.76221 98.9305 6.82285 98.5192 6.94414C98.1078 7.06543 97.6965 7.21836 97.2852 7.40293L96.4863 5.77344C96.9556 5.52559 97.4803 5.33047 98.0604 5.18809C98.6457 5.0457 99.2495 4.97451 99.8718 4.97451ZM101.153 9.90254L100.22 9.93418C99.4394 9.95527 98.8962 10.095 98.5904 10.3534C98.2898 10.6118 98.1395 10.952 98.1395 11.3738C98.1395 11.743 98.2476 12.0066 98.4638 12.1648C98.68 12.3178 98.9621 12.3942 99.3102 12.3942C99.827 12.3942 100.262 12.2413 100.615 11.9354C100.974 11.6296 101.153 11.1945 101.153 10.6303V9.90254ZM109.004 14.1582C108.018 14.1582 107.214 13.7732 106.591 13.0033C105.974 12.2281 105.666 11.0917 105.666 9.59404C105.666 8.08057 105.98 6.93623 106.607 6.16103C107.235 5.38057 108.055 4.99033 109.067 4.99033C109.489 4.99033 109.861 5.04834 110.183 5.16436C110.504 5.28037 110.781 5.43594 111.013 5.63105C111.25 5.82617 111.451 6.04502 111.614 6.2876H111.693C111.662 6.11885 111.622 5.871 111.575 5.54404C111.533 5.21182 111.511 4.87168 111.511 4.52363V1.6918H113.932V14H112.081L111.614 12.853H111.511C111.359 13.0956 111.166 13.3171 110.934 13.5175C110.707 13.7126 110.436 13.8682 110.119 13.9842C109.803 14.1002 109.431 14.1582 109.004 14.1582ZM109.85 12.236C110.51 12.236 110.974 12.0409 111.243 11.6507C111.517 11.2552 111.662 10.6619 111.678 9.8709V9.60986C111.678 8.75029 111.546 8.09375 111.282 7.64023C111.018 7.18144 110.528 6.95205 109.811 6.95205C109.278 6.95205 108.862 7.18144 108.561 7.64023C108.26 8.09902 108.11 8.76084 108.11 9.62568C108.11 10.4905 108.26 11.1418 108.561 11.5795C108.867 12.0172 109.297 12.236 109.85 12.236ZM124.654 9.5624C124.654 10.3007 124.554 10.9546 124.353 11.5241C124.158 12.0937 123.871 12.5762 123.491 12.9717C123.117 13.3619 122.663 13.6572 122.131 13.8576C121.603 14.058 121.007 14.1582 120.343 14.1582C119.721 14.1582 119.149 14.058 118.626 13.8576C118.11 13.6572 117.659 13.3619 117.274 12.9717C116.894 12.5762 116.599 12.0937 116.388 11.5241C116.182 10.9546 116.079 10.3007 116.079 9.5624C116.079 8.58154 116.253 7.75098 116.601 7.0707C116.95 6.39043 117.445 5.87363 118.089 5.52031C118.732 5.16699 119.499 4.99033 120.39 4.99033C121.218 4.99033 121.951 5.16699 122.589 5.52031C123.233 5.87363 123.736 6.39043 124.1 7.0707C124.469 7.75098 124.654 8.58154 124.654 9.5624ZM118.539 9.5624C118.539 10.1425 118.603 10.6303 118.729 11.0258C118.856 11.4213 119.054 11.7192 119.323 11.9196C119.592 12.12 119.942 12.2202 120.375 12.2202C120.802 12.2202 121.147 12.12 121.411 11.9196C121.68 11.7192 121.875 11.4213 121.996 11.0258C122.123 10.6303 122.186 10.1425 122.186 9.5624C122.186 8.97705 122.123 8.49189 121.996 8.10693C121.875 7.7167 121.68 7.42402 121.411 7.22891C121.142 7.03379 120.791 6.93623 120.359 6.93623C119.721 6.93623 119.257 7.15508 118.967 7.59277C118.682 8.03047 118.539 8.68701 118.539 9.5624ZM131.745 4.99033C131.867 4.99033 132.006 4.99824 132.165 5.01406C132.328 5.02461 132.46 5.04043 132.56 5.06152L132.378 7.32383C132.299 7.29746 132.186 7.279 132.038 7.26846C131.896 7.25264 131.772 7.24473 131.666 7.24473C131.355 7.24473 131.052 7.28428 130.757 7.36338C130.467 7.44248 130.205 7.57168 129.973 7.75098C129.741 7.925 129.557 8.15703 129.42 8.44707C129.288 8.73184 129.222 9.08252 129.222 9.49912V14H126.809V5.15644H128.637L128.993 6.64355H129.111C129.285 6.34297 129.501 6.06875 129.76 5.8209C130.024 5.56777 130.321 5.36738 130.654 5.21973C130.991 5.0668 131.355 4.99033 131.745 4.99033ZM137.951 4.97451C139.137 4.97451 140.047 5.23291 140.68 5.74971C141.312 6.2665 141.629 7.05225 141.629 8.10693V14H139.944L139.477 12.7977H139.414C139.161 13.1141 138.903 13.3725 138.639 13.5729C138.375 13.7732 138.072 13.9209 137.729 14.0158C137.386 14.1107 136.97 14.1582 136.479 14.1582C135.957 14.1582 135.488 14.058 135.071 13.8576C134.66 13.6572 134.336 13.3514 134.098 12.94C133.861 12.5234 133.742 11.9961 133.742 11.358C133.742 10.4193 134.072 9.72852 134.731 9.28555C135.39 8.8373 136.379 8.58945 137.698 8.54199L139.232 8.49453V8.10693C139.232 7.64287 139.111 7.30273 138.868 7.08652C138.626 6.87031 138.288 6.76221 137.856 6.76221C137.429 6.76221 137.009 6.82285 136.598 6.94414C136.187 7.06543 135.775 7.21836 135.364 7.40293L134.565 5.77344C135.034 5.52559 135.559 5.33047 136.139 5.18809C136.725 5.0457 137.328 4.97451 137.951 4.97451ZM139.232 9.90254L138.299 9.93418C137.518 9.95527 136.975 10.095 136.669 10.3534C136.369 10.6118 136.218 10.952 136.218 11.3738C136.218 11.743 136.326 12.0066 136.543 12.1648C136.759 12.3178 137.041 12.3942 137.389 12.3942C137.906 12.3942 138.341 12.2413 138.694 11.9354C139.053 11.6296 139.232 11.1945 139.232 10.6303V9.90254ZM151.453 14.1582C150.467 14.1582 149.663 13.7732 149.04 13.0033C148.423 12.2281 148.115 11.0917 148.115 9.59404C148.115 8.08057 148.429 6.93623 149.056 6.16103C149.684 5.38057 150.504 4.99033 151.516 4.99033C151.938 4.99033 152.31 5.04834 152.632 5.16436C152.953 5.28037 153.23 5.43594 153.462 5.63105C153.699 5.82617 153.9 6.04502 154.063 6.2876H154.142C154.111 6.11885 154.071 5.871 154.024 5.54404C153.982 5.21182 153.961 4.87168 153.961 4.52363V1.6918H156.381V14H154.53L154.063 12.853H153.961C153.808 13.0956 153.615 13.3171 153.383 13.5175C153.156 13.7126 152.885 13.8682 152.568 13.9842C152.252 14.1002 151.88 14.1582 151.453 14.1582ZM152.299 12.236C152.959 12.236 153.423 12.0409 153.692 11.6507C153.966 11.2552 154.111 10.6619 154.127 9.8709V9.60986C154.127 8.75029 153.995 8.09375 153.731 7.64023C153.467 7.18144 152.977 6.95205 152.26 6.95205C151.727 6.95205 151.311 7.18144 151.01 7.64023C150.709 8.09902 150.559 8.76084 150.559 9.62568C150.559 10.4905 150.709 11.1418 151.01 11.5795C151.316 12.0172 151.746 12.236 152.299 12.236ZM162.713 4.99033C163.53 4.99033 164.234 5.14853 164.825 5.46494C165.416 5.77607 165.872 6.22959 166.193 6.82549C166.515 7.42139 166.676 8.14912 166.676 9.00869V10.1794H160.973C160.999 10.8597 161.202 11.3949 161.582 11.7852C161.967 12.1701 162.499 12.3626 163.18 12.3626C163.744 12.3626 164.261 12.3046 164.73 12.1886C165.199 12.0726 165.682 11.8985 166.178 11.6665V13.5333C165.74 13.7495 165.281 13.9077 164.801 14.0079C164.327 14.1081 163.749 14.1582 163.069 14.1582C162.183 14.1582 161.397 13.9947 160.712 13.6678C160.031 13.3408 159.496 12.8425 159.106 12.1728C158.721 11.503 158.528 10.6593 158.528 9.6415C158.528 8.60791 158.703 7.74834 159.051 7.06279C159.404 6.37197 159.894 5.85518 160.522 5.5124C161.149 5.16436 161.88 4.99033 162.713 4.99033ZM162.729 6.70684C162.259 6.70684 161.869 6.85713 161.558 7.15771C161.252 7.4583 161.076 7.93027 161.028 8.57363H164.414C164.408 8.21504 164.342 7.896 164.216 7.6165C164.095 7.33701 163.91 7.11553 163.662 6.95205C163.42 6.78857 163.108 6.70684 162.729 6.70684ZM56.8816 18.7303C59.3561 18.7303 61.4141 19.0349 63.0555 19.6442C64.6969 20.2411 65.9279 21.1364 66.7486 22.3302C67.5818 23.5239 67.9983 25.0099 67.9983 26.7881C67.9983 27.8948 67.8118 28.902 67.4388 29.8098C67.0657 30.7175 66.531 31.532 65.8347 32.2532C65.1508 32.962 64.3301 33.5838 63.3726 34.1185L71.3185 46H62.9622L57.18 36.077H55.3148V46H47.9471V18.7303H56.8816ZM56.7696 24.3073H55.3148V30.5372H56.695C57.8266 30.5372 58.753 30.2885 59.4742 29.7911C60.1955 29.2937 60.5561 28.4046 60.5561 27.1238C60.5561 26.241 60.2576 25.5508 59.6608 25.0534C59.0639 24.556 58.1002 24.3073 56.7696 24.3073ZM83.2649 24.4938C85.3167 24.4938 87.0886 24.8545 88.5808 25.5757C90.073 26.2845 91.2233 27.3539 92.0315 28.7839C92.8398 30.2139 93.2439 32.0045 93.2439 34.1558V37.4013H80.2059C80.2681 38.508 80.6785 39.4157 81.437 40.1245C82.208 40.8333 83.3395 41.1877 84.8317 41.1877C86.1498 41.1877 87.356 41.0571 88.4503 40.796C89.557 40.5349 90.6948 40.1307 91.8636 39.5836V44.8249C90.844 45.3596 89.7311 45.7513 88.5249 46C87.3187 46.2487 85.7954 46.373 83.9551 46.373C81.8287 46.373 79.9261 45.9938 78.2474 45.2353C76.5687 44.4767 75.2444 43.3016 74.2745 41.71C73.317 40.1183 72.8383 38.0728 72.8383 35.5733C72.8383 33.0366 73.2735 30.9538 74.1439 29.3248C75.0144 27.6834 76.233 26.471 77.7998 25.6876C79.3666 24.8918 81.1883 24.4938 83.2649 24.4938ZM83.5261 29.4554C82.668 29.4554 81.9468 29.7289 81.3624 30.2761C80.7904 30.8108 80.4546 31.6563 80.3552 32.8128H86.6223C86.6099 32.191 86.4856 31.6253 86.2493 31.1154C86.013 30.6056 85.6649 30.2015 85.2048 29.903C84.7571 29.6046 84.1975 29.4554 83.5261 29.4554ZM118.303 24.8669V46H112.801L111.887 43.37H111.458C111.022 44.0788 110.469 44.657 109.798 45.1047C109.138 45.5399 108.405 45.857 107.597 46.056C106.788 46.2674 105.949 46.373 105.078 46.373C103.698 46.373 102.448 46.1057 101.329 45.571C100.223 45.0363 99.3398 44.1969 98.6807 43.0529C98.0341 41.9089 97.7108 40.4354 97.7108 38.6323V24.8669H105.004V36.4127C105.004 37.7805 105.197 38.8251 105.582 39.5463C105.98 40.2551 106.627 40.6095 107.522 40.6095C108.442 40.6095 109.151 40.3608 109.648 39.8634C110.158 39.366 110.513 38.6323 110.711 37.6624C110.91 36.6925 111.01 35.5112 111.01 34.1185V24.8669H118.303ZM117.109 16.7345V17.1262C116.662 17.4868 116.09 17.9282 115.393 18.4505C114.697 18.9603 113.957 19.495 113.174 20.0546C112.403 20.6017 111.65 21.124 110.917 21.6214C110.195 22.1188 109.574 22.5291 109.051 22.8524H104.202V22.3115C104.637 21.839 105.159 21.2794 105.769 20.6328C106.378 19.9738 106.987 19.3023 107.597 18.6184C108.206 17.9344 108.716 17.3065 109.126 16.7345H117.109ZM139.426 39.509C139.426 40.852 139.128 42.0395 138.531 43.0716C137.934 44.1037 136.977 44.9119 135.659 45.4964C134.353 46.0808 132.631 46.373 130.492 46.373C128.987 46.373 127.638 46.2922 126.444 46.1306C125.263 45.9689 124.063 45.658 122.844 45.1979V39.3598C124.175 39.9691 125.53 40.4105 126.911 40.6841C128.291 40.9452 129.379 41.0758 130.175 41.0758C130.996 41.0758 131.592 40.9887 131.965 40.8146C132.351 40.6281 132.544 40.3546 132.544 39.9939C132.544 39.6831 132.413 39.4219 132.152 39.2105C131.903 38.9867 131.449 38.7318 130.79 38.4458C130.144 38.1598 129.23 37.7743 128.048 37.2894C126.88 36.8044 125.903 36.2759 125.12 35.7039C124.349 35.1319 123.771 34.448 123.385 33.6521C123 32.8563 122.807 31.8802 122.807 30.7237C122.807 28.6595 123.603 27.1052 125.195 26.0606C126.786 25.0161 128.894 24.4938 131.518 24.4938C132.91 24.4938 134.222 24.6493 135.453 24.9602C136.684 25.2586 137.959 25.7 139.277 26.2845L137.281 30.9849C136.237 30.5123 135.18 30.1331 134.11 29.8471C133.041 29.5611 132.189 29.4181 131.555 29.4181C130.983 29.4181 130.542 29.4927 130.231 29.6419C129.92 29.7911 129.764 30.0087 129.764 30.2947C129.764 30.5559 129.87 30.7859 130.082 30.9849C130.305 31.1838 130.722 31.4139 131.331 31.675C131.941 31.9361 132.83 32.303 133.999 32.7755C135.23 33.2729 136.243 33.8076 137.039 34.3796C137.847 34.9392 138.444 35.6231 138.83 36.4313C139.227 37.2396 139.426 38.2655 139.426 39.509ZM164.056 35.3868C164.056 37.1526 163.814 38.7194 163.329 40.0872C162.844 41.455 162.141 42.6053 161.221 43.5379C160.301 44.4705 159.188 45.1793 157.882 45.6643C156.577 46.1368 155.103 46.373 153.462 46.373C151.932 46.373 150.527 46.1368 149.246 45.6643C147.978 45.1793 146.871 44.4705 145.926 43.5379C144.981 42.6053 144.248 41.455 143.725 40.0872C143.216 38.7194 142.961 37.1526 142.961 35.3868C142.961 33.0491 143.383 31.0719 144.229 29.4554C145.087 27.8388 146.306 26.6078 147.885 25.7622C149.477 24.9166 151.373 24.4938 153.574 24.4938C155.601 24.4938 157.404 24.9166 158.983 25.7622C160.562 26.6078 161.799 27.8388 162.695 29.4554C163.603 31.0719 164.056 33.0491 164.056 35.3868ZM150.366 35.3868C150.366 36.593 150.471 37.6127 150.683 38.4458C150.894 39.2665 151.23 39.8945 151.69 40.3297C152.162 40.7525 152.778 40.9639 153.537 40.9639C154.295 40.9639 154.898 40.7525 155.346 40.3297C155.793 39.8945 156.117 39.2665 156.316 38.4458C156.527 37.6127 156.633 36.593 156.633 35.3868C156.633 34.1806 156.527 33.1734 156.316 32.3651C156.117 31.5569 155.787 30.9476 155.327 30.5372C154.879 30.1269 154.27 29.9217 153.499 29.9217C152.392 29.9217 151.59 30.3818 151.093 31.302C150.608 32.2221 150.366 33.5838 150.366 35.3868Z" fill="#00827C"/>
</svg>
