<?xml version="1.0" encoding="UTF-8"?>
<svg id="Capa_1" xmlns="http://www.w3.org/2000/svg" version="1.1" viewBox="0 0 561.95 116.66">
  <!-- Generator: Adobe Illustrator 30.3.0, SVG Export Plug-In . SVG Version: 2.1.3 Build 182)  -->
  <defs>
    <style>
      .st0 {
        fill: #474747;
      }
    </style>
  </defs>
  <path class="st0" d="M24.79,61.58v2.81h14.35v12.97c-.67.22-1.43.41-2.3.57-.87.16-1.77.29-2.7.4-.93.11-1.86.2-2.8.27-.94.07-1.76.1-2.47.1-3.16,0-6-.46-8.53-1.37-2.53-.91-4.69-2.23-6.46-3.96-1.78-1.73-3.13-3.84-4.07-6.33-.93-2.49-1.4-5.28-1.4-8.39s.5-6.01,1.5-8.56c1-2.55,2.4-4.74,4.2-6.56,1.8-1.82,3.95-3.23,6.46-4.23,2.51-1,5.27-1.5,8.3-1.5,2.13,0,4.17.19,6.13.57,1.95.38,3.8.92,5.53,1.63l.53-2.47c-1.55-.76-3.42-1.32-5.6-1.7-2.18-.38-4.4-.57-6.66-.57-3.51,0-6.7.58-9.56,1.73-2.86,1.16-5.32,2.76-7.36,4.83-2.05,2.06-3.62,4.53-4.73,7.39-1.11,2.87-1.67,6.01-1.67,9.43s.53,6.45,1.6,9.23c1.07,2.78,2.6,5.15,4.6,7.13,2,1.98,4.42,3.51,7.26,4.6,2.84,1.09,6.04,1.63,9.6,1.63,2.18,0,4.48-.17,6.9-.5,2.42-.33,4.59-.85,6.5-1.57v-17.59h-17.14Z"/>
  <path class="st0" d="M88.45,47.54c0,3.32-1.11,6.08-3.32,8.27-2.21,2.19-5.15,3.75-8.79,4.67l16.89,20.91h-3.6l-16.34-20.29c-1.25.14-2.56.21-3.95.21h-4.02v20.08h-3.05v-46.11h10.18c2.08,0,4.07.25,5.99.76,1.92.51,3.62,1.27,5.12,2.28,1.5,1.01,2.69,2.28,3.56,3.81s1.32,3.32,1.32,5.4ZM85.41,47.75c0-1.76-.38-3.26-1.14-4.5-.76-1.25-1.76-2.26-2.98-3.05-1.22-.78-2.62-1.36-4.19-1.73-1.57-.37-3.19-.55-4.85-.55h-6.92v20.77h4.29c2.21,0,4.28-.24,6.2-.73,1.92-.48,3.59-1.19,5.02-2.11,1.43-.92,2.55-2.07,3.36-3.43.81-1.36,1.21-2.92,1.21-4.67Z"/>
  <path class="st0" d="M147.59,71.37c-.68,1.97-1.72,3.7-3.13,5.17-1.41,1.47-3.15,2.65-5.24,3.54-2.09.88-4.56,1.33-7.41,1.33s-5.33-.44-7.41-1.33c-2.09-.89-3.83-2.06-5.24-3.54-1.41-1.47-2.45-3.2-3.13-5.17s-1.02-4.05-1.02-6.22v-29.86h2.99v30.13c0,2,.29,3.81.89,5.44.59,1.63,1.47,3.04,2.65,4.22,1.18,1.18,2.62,2.1,4.32,2.75,1.7.66,3.69.99,5.95.99s4.19-.33,5.92-.99c1.72-.65,3.17-1.57,4.35-2.75,1.18-1.18,2.06-2.59,2.65-4.22.59-1.63.88-3.45.88-5.44v-30.13h2.99v29.86c0,2.18-.34,4.25-1.02,6.22Z"/>
  <path class="st0" d="M198.6,48.03c0,2.08-.43,3.97-1.28,5.68-.85,1.71-2.05,3.16-3.6,4.36-1.55,1.2-3.39,2.14-5.54,2.81-2.14.67-4.54,1-7.17,1h-4.85v19.53h-3.05v-46.11h9.48c2.17,0,4.23.27,6.16.83,1.94.55,3.64,1.37,5.09,2.46,1.45,1.09,2.61,2.41,3.46,3.98.85,1.57,1.28,3.39,1.28,5.47ZM195.55,48.09c0-1.8-.38-3.35-1.14-4.64-.76-1.29-1.76-2.35-2.98-3.19-1.22-.83-2.62-1.43-4.19-1.8-1.57-.37-3.18-.55-4.85-.55h-6.23v21.33h5.05c2.08,0,3.99-.24,5.75-.73,1.76-.48,3.27-1.2,4.54-2.15,1.27-.94,2.26-2.11,2.98-3.49.72-1.39,1.08-2.98,1.08-4.78Z"/>
  <path class="st0" d="M260.82,58.34c0,3.03-.47,5.94-1.41,8.72-.94,2.79-2.31,5.24-4.11,7.35-1.81,2.12-4,3.81-6.58,5.08-2.58,1.27-5.53,1.91-8.82,1.91s-6.24-.64-8.82-1.91c-2.58-1.27-4.78-2.96-6.58-5.08-1.81-2.12-3.18-4.57-4.11-7.35-.94-2.78-1.41-5.69-1.41-8.72s.47-5.93,1.41-8.72c.94-2.78,2.31-5.23,4.11-7.35,1.8-2.12,4-3.81,6.58-5.08,2.58-1.27,5.52-1.91,8.82-1.91s6.24.64,8.82,1.91c2.58,1.27,4.78,2.96,6.58,5.08,1.8,2.12,3.17,4.57,4.11,7.35.94,2.79,1.41,5.69,1.41,8.72ZM257.88,58.34c0-2.81-.41-5.45-1.24-7.92-.82-2.47-2.02-4.65-3.58-6.52-1.56-1.87-3.45-3.35-5.68-4.45-2.23-1.09-4.72-1.64-7.48-1.64s-5.26.55-7.49,1.64c-2.23,1.09-4.12,2.57-5.68,4.45-1.56,1.87-2.75,4.04-3.58,6.52-.82,2.47-1.24,5.11-1.24,7.92s.41,5.45,1.24,7.92c.82,2.47,2.02,4.64,3.58,6.52,1.56,1.87,3.45,3.35,5.68,4.44,2.23,1.09,4.72,1.64,7.49,1.64s5.26-.55,7.48-1.64c2.23-1.09,4.12-2.57,5.68-4.44,1.56-1.87,2.75-4.04,3.58-6.52s1.24-5.11,1.24-7.92Z"/>
  <path class="st0" d="M383.46,46.23c-.75-3.73-1.99-7.02-3.71-9.87-1.72-2.85-3.96-5.13-6.73-6.85-2.76-1.72-6.16-2.58-10.18-2.58-9.3,0-16.13,3.48-20.49,10.43-2.35-3.69-4.84-6.35-7.48-7.98-2.64-1.63-5.97-2.45-9.99-2.45-3.27,0-6.47.71-9.62,2.14-2.75,1.25-5.03,3.23-6.85,5.94v-8.15h-19.88v62.91h19.88v-42.24c.92-1.34,2.15-2.47,3.71-3.39,1.55-.92,3.37-1.38,5.47-1.38,3.27,0,5.55,1.19,6.85,3.58,1.3,2.39,1.95,6.14,1.95,11.25v32.18h20.11v-31.8c0-1.68-.06-3.43-.19-5.28-.13-1.84-.36-3.48-.69-4.9,1.17-1.34,2.6-2.51,4.27-3.52,1.68-1,3.6-1.51,5.78-1.51,3.27,0,5.55,1.19,6.85,3.58,1.3,2.39,1.95,6.14,1.95,11.25v32.18h20.11v-31.8c0-4.1-.38-8.02-1.13-11.75Z"/>
  <rect class="st0" x="391.05" y="1.14" width="19.88" height="88.65"/>
  <path class="st0" d="M477.3,45.22c-1.26-3.85-3-7.14-5.22-9.87-2.22-2.72-4.84-4.82-7.86-6.28-3.02-1.47-6.24-2.2-9.68-2.2-7.54,0-13.32,2.36-17.33,7.07v-7.07h-19.88v88.65h19.88v-25.97c1.27.38,2.69.71,4.26.99,1.68.29,3.6.44,5.78.44,4.36,0,8.46-.69,12.32-2.08,3.85-1.38,7.23-3.46,10.12-6.22,2.89-2.77,5.19-6.18,6.91-10.24,1.72-4.06,2.58-8.82,2.58-14.27,0-4.78-.63-9.09-1.88-12.94ZM455.56,71.3c-2.35,3.23-6.16,4.84-11.44,4.84-1.51,0-2.85-.08-4.02-.25-1.06-.15-2.02-.37-2.88-.66v-28.92c1.2-1.28,2.57-2.25,4.13-2.91,1.68-.71,3.64-1.07,5.91-1.07,4.11,0,7.1,1.53,8.99,4.59,1.89,3.06,2.83,6.85,2.83,11.38,0,5.45-1.17,9.78-3.52,13.01Z"/>
  <path class="st0" d="M507.26,62.86c0,.71-.14,1.37-.42,1.97s-.68,1.12-1.19,1.56c-.51.44-1.12.77-1.83,1.01-.71.24-1.49.35-2.35.35s-1.68-.1-2.58-.29c-.9-.19-1.68-.44-2.34-.75l.3-1.01c.75.33,1.48.58,2.21.75.73.17,1.51.26,2.35.26,1.42,0,2.55-.34,3.39-1.02s1.26-1.62,1.26-2.8c0-.64-.13-1.18-.38-1.64-.26-.46-.59-.86-1-1.22-.41-.36-.88-.67-1.41-.94-.53-.27-1.07-.55-1.64-.82-.67-.33-1.3-.65-1.87-.97s-1.07-.67-1.48-1.07c-.41-.39-.73-.83-.96-1.33-.23-.49-.34-1.07-.34-1.75,0-.73.14-1.36.42-1.9.28-.54.66-.98,1.13-1.32s1.02-.61,1.64-.78,1.27-.26,1.94-.26c.82,0,1.61.09,2.36.27.76.18,1.43.43,2.04.74l-.27,1.04c-.66-.31-1.33-.56-2.01-.74-.68-.18-1.37-.27-2.06-.27-1.15,0-2.1.26-2.85.78-.76.52-1.13,1.32-1.13,2.39,0,.53.08.98.23,1.35s.39.71.7,1.01c.31.3.7.59,1.16.86s1.01.56,1.65.85c.58.27,1.19.58,1.82.91.63.34,1.2.73,1.72,1.17.52.45.95.96,1.28,1.54.34.58.51,1.27.51,2.05Z"/>
  <path class="st0" d="M510.81,66.58c0-.27.1-.51.3-.71s.44-.3.71-.3.51.1.71.3c.2.2.3.44.3.71s-.1.51-.3.71c-.2.2-.44.3-.71.3s-.51-.1-.71-.3-.3-.44-.3-.71Z"/>
  <path class="st0" d="M531.3,67.43h-1.2l-1.91-4.92h-9.04l-1.89,4.92h-1.2l7.18-18.2h.87l7.19,18.2ZM519.56,61.47h8.25l-4.13-10.71-4.13,10.71Z"/>
  <path class="st0" d="M534.53,66.58c0-.27.1-.51.3-.71s.44-.3.71-.3.51.1.71.3c.2.2.3.44.3.71s-.1.51-.3.71c-.2.2-.44.3-.71.3s-.51-.1-.71-.3-.3-.44-.3-.71Z"/>
  <path class="st0" d="M550.89,62.86c0,.71-.14,1.37-.42,1.97s-.68,1.12-1.19,1.56c-.51.44-1.12.77-1.83,1.01-.71.24-1.49.35-2.35.35s-1.68-.1-2.58-.29c-.9-.19-1.68-.44-2.34-.75l.3-1.01c.75.33,1.48.58,2.21.75.73.17,1.51.26,2.35.26,1.42,0,2.55-.34,3.39-1.02s1.26-1.62,1.26-2.8c0-.64-.13-1.18-.38-1.64-.26-.46-.59-.86-1-1.22-.41-.36-.88-.67-1.41-.94-.53-.27-1.07-.55-1.64-.82-.67-.33-1.3-.65-1.87-.97s-1.07-.67-1.48-1.07c-.41-.39-.73-.83-.96-1.33-.23-.49-.34-1.07-.34-1.75,0-.73.14-1.36.42-1.9.28-.54.66-.98,1.13-1.32s1.02-.61,1.64-.78,1.27-.26,1.94-.26c.82,0,1.61.09,2.36.27.76.18,1.43.43,2.04.74l-.27,1.04c-.66-.31-1.33-.56-2.01-.74-.68-.18-1.37-.27-2.06-.27-1.15,0-2.1.26-2.85.78-.76.52-1.13,1.32-1.13,2.39,0,.53.08.98.23,1.35s.39.71.7,1.01c.31.3.7.59,1.16.86s1.01.56,1.65.85c.58.27,1.19.58,1.82.91.63.34,1.2.73,1.72,1.17.52.45.95.96,1.28,1.54.34.58.51,1.27.51,2.05Z"/>
  <path class="st0" d="M554.44,66.58c0-.27.1-.51.3-.71s.44-.3.71-.3.51.1.71.3c.2.2.3.44.3.71s-.1.51-.3.71c-.2.2-.44.3-.71.3s-.51-.1-.71-.3-.3-.44-.3-.71Z"/>
</svg>